<mxfile host="app.diagrams.net" modified="2023-04-05T22:04:38.254Z" agent="Mozilla/5.0 (Windows NT 10.0; Win64; x64) AppleWebKit/537.36 (KHTML, like Gecko) Chrome/111.0.0.0 Safari/537.36" etag="KUNRyAAU1zkE9N5VUrqt" version="21.1.4" type="github">
  <diagram name="Pagina-1" id="QgD1DaEQ7DHe5TQOFEnH">
    <mxGraphModel dx="1079" dy="774" grid="1" gridSize="10" guides="1" tooltips="1" connect="1" arrows="1" fold="1" page="1" pageScale="1" pageWidth="827" pageHeight="1169" math="0" shadow="0">
      <root>
        <mxCell id="0" />
        <mxCell id="1" parent="0" />
      </root>
    </mxGraphModel>
  </diagram>
</mxfile>
